<svg xmlns="http://www.w3.org/2000/svg" viewBox="0 0 888.81 211.61"><defs><style>.cls-1{fill:#4c4f59;}.cls-2{fill:#b9cc00;}</style></defs><g id="Layer_2" data-name="Layer 2"><g id="Layer_1-2" data-name="Layer 1"><path class="cls-1" d="M276.3,190.12,260,162.05H247.89v28.07H232V109.28h32.33a26.8,26.8,0,0,1,26.91,26.79A24.6,24.6,0,0,1,286.92,150a26.79,26.79,0,0,1-11.32,9.64l17.9,30.49Zm-28.41-65.94v23.9h16.39a10.12,10.12,0,0,0,7.74-3.52,12.1,12.1,0,0,0,3.24-8.49,11.89,11.89,0,0,0-3.24-8.43,10.2,10.2,0,0,0-7.74-3.46Z"/><path class="cls-1" d="M370,179.55a42.46,42.46,0,0,1-59.53,0q-12.18-12.18-12.18-29.85t12.18-29.85a42,42,0,0,1,71.77,29.85A40.49,40.49,0,0,1,370,179.55Zm-48.39-10.86a26.93,26.93,0,0,0,37.19,0q7.5-7.44,7.51-19t-7.51-19.06a26.8,26.8,0,0,0-37.19,0q-7.5,7.52-7.5,19.06T321.56,168.69Z"/><path class="cls-1" d="M461.41,179.55a42.46,42.46,0,0,1-59.53,0Q389.7,167.37,389.7,149.7t12.18-29.85a42,42,0,0,1,71.77,29.85A40.49,40.49,0,0,1,461.41,179.55ZM413,168.69a26.93,26.93,0,0,0,37.19,0q7.5-7.44,7.51-19t-7.51-19.06a26.8,26.8,0,0,0-37.19,0q-7.5,7.52-7.5,19.06T413,168.69Z"/><path class="cls-1" d="M509.57,191.73q-12,0-20.21-5.37a28.71,28.71,0,0,1-11.55-14.6l13.63-8q4.72,12.36,18.59,12.35,6.71,0,9.82-2.42a7.64,7.64,0,0,0-.7-12.76q-3.81-2.37-13.62-5.14a86.62,86.62,0,0,1-9.18-3.23,39.45,39.45,0,0,1-7.51-4.34,17.64,17.64,0,0,1-5.72-6.87,22.46,22.46,0,0,1-2-9.7q0-11,7.8-17.49a28.26,28.26,0,0,1,18.76-6.53,31.2,31.2,0,0,1,17.27,4.8,32.21,32.21,0,0,1,11.6,13.33l-13.39,7.74q-4.86-10.4-15.48-10.39-5,0-7.79,2.25a7.09,7.09,0,0,0-2.83,5.83,7.35,7.35,0,0,0,3.17,6.18q3.18,2.37,12.19,5.14,3.69,1.16,5.6,1.79c1.27.42,3,1.08,5.19,2a31.32,31.32,0,0,1,5.08,2.48,39.27,39.27,0,0,1,4.1,3.12,16.16,16.16,0,0,1,3.53,4,23.08,23.08,0,0,1,2.94,11.44q0,11.19-8.14,17.78T509.57,191.73Z"/><path class="cls-1" d="M616.74,179.55a42.46,42.46,0,0,1-59.53,0Q545,167.37,545,149.7t12.19-29.85A42,42,0,0,1,629,149.7,40.49,40.49,0,0,1,616.74,179.55Zm-48.39-10.86a26.92,26.92,0,0,0,37.18,0q7.51-7.44,7.51-19t-7.51-19.06a26.79,26.79,0,0,0-37.18,0q-7.51,7.52-7.51,19.06T568.35,168.69Z"/><path class="cls-1" d="M687,109.28h15.94v80.84H690.76l-34.65-49.43v49.43H640.18V109.28h12.11L687,158.52Z"/><path class="cls-1" d="M797.23,146.69v6.24q0,17.32-11.08,28.06t-28.64,10.74q-18.71,0-31-12.18a40.26,40.26,0,0,1-12.3-29.74,40.79,40.79,0,0,1,12.18-29.91q12.2-12.24,30.2-12.24a42.25,42.25,0,0,1,20.67,5.14,38,38,0,0,1,14.55,13.69l-13.62,7.85a21.49,21.49,0,0,0-8.72-8.09,27.22,27.22,0,0,0-13-3.11q-11.55,0-19,7.56T730,149.81q0,11.44,7.57,18.88t20,7.45q9.24,0,15.3-4.1a20.31,20.31,0,0,0,8.26-11.26H756.7V146.69Z"/><path class="cls-1" d="M876.57,179.55a42.46,42.46,0,0,1-59.53,0q-12.19-12.18-12.19-29.85T817,119.85a42,42,0,0,1,71.77,29.85A40.49,40.49,0,0,1,876.57,179.55Zm-48.39-10.86a26.93,26.93,0,0,0,37.19,0q7.5-7.44,7.5-19t-7.5-19.06a26.8,26.8,0,0,0-37.19,0q-7.5,7.52-7.51,19.06T828.18,168.69Z"/><path class="cls-2" d="M207.09,109.47H0C13.2,95.18,37.25,69.41,58.92,46.21L73.64,59.94l14.62-13,17.9,15L116.87,49,135,61.8l10.88-13.54Z"/><path class="cls-1" d="M134.45,121.75v86.94a193.19,193.19,0,0,1-60.92.93V121.75Z"/><path class="cls-1" d="M61.25,121.75v85.59a169,169,0,0,1-40.61-14.72V121.75Z"/><path class="cls-1" d="M187.34,121.75v70.76a207.58,207.58,0,0,1-40.61,13.72V121.75Z"/><path class="cls-2" d="M142.39,44.77l-8.33,10.35L116,42.39,105.54,55,88.17,40.39,73.71,53.3,62.29,42.61,94,8.71V5.33A5.35,5.35,0,0,1,99.31,0h1.57a5.33,5.33,0,0,1,5.32,5.33V8.57Z"/></g></g></svg>